<?xml version="1.0" encoding="utf-8"?>
<!-- Generator: Adobe Illustrator 25.2.3, SVG Export Plug-In . SVG Version: 6.00 Build 0)  -->
<svg version="1.1" id="Laag_1" xmlns="http://www.w3.org/2000/svg" xmlns:xlink="http://www.w3.org/1999/xlink" x="0px" y="0px"
	 viewBox="0 0 50 50" style="enable-background:new 0 0 50 50;" xml:space="preserve">
<style type="text/css">
	.st0{fill:#1A2835;}
</style>
<path class="st0" d="M25,49.3c13.4,0,24.3-10.9,24.3-24.3S38.4,0.8,25,0.8S0.7,11.7,0.7,25S11.6,49.3,25,49.3z M19.1,35.6h-4.4V21.5
	h4.4V35.6z M21.9,21.5h4.2v2c1.1-1.8,3.3-2.9,6.5-2s3,6.4,3,6.4v7.6h-4.4v-7.2c0-0.8,0.2-3.3-2.4-3.3s-2.5,3.3-2.5,3.3v7.3h-4.4
	V21.5z M17,14.5c1.4,0,2.5,1.1,2.5,2.5s-1.1,2.5-2.5,2.5s-2.5-1.1-2.5-2.5C14.4,15.6,15.6,14.5,17,14.5z"/>
</svg>
