<svg xmlns="http://www.w3.org/2000/svg" viewBox="0 0 239.64 88.11"><defs><style>.cls-1{fill:#293f4e;}.cls-2{fill:#acbf37;}</style></defs><g id="Layer_2" data-name="Layer 2"><g id="Layer_1-2" data-name="Layer 1"><circle class="cls-1" cx="63.67" cy="7.76" r="3.4"/><circle class="cls-1" cx="43.06" cy="55.38" r="2.05"/><circle class="cls-1" cx="52.19" cy="39.44" r="3.19"/><circle class="cls-1" cx="54.54" cy="46.13" r="2.05"/><circle class="cls-1" cx="82.06" cy="27.47" r="2.05"/><circle class="cls-1" cx="83.58" cy="34.56" r="3.19"/><circle class="cls-1" cx="28.05" cy="4.39" r="2.05"/><circle class="cls-1" cx="6.96" cy="61.63" r="2.05"/><circle class="cls-1" cx="19.07" cy="56.08" r="2.05"/><circle class="cls-1" cx="18.48" cy="26.33" r="2.05"/><circle class="cls-1" cx="35.65" cy="76.25" r="3.19"/><circle class="cls-1" cx="41.56" cy="17.36" r="2.05"/><circle class="cls-1" cx="38.67" cy="23.96" r="3.19"/><path class="cls-2" d="M82.59,44.85a11.74,11.74,0,0,0-3,2,69.21,69.21,0,0,0-5.39,5.25c-6,6.36-12.94,14.59-15.75,15.1-3.22.58,23.24-22.44,11.42-19.94-6.59,1.4,8.92-8.9,8.35-10.13-.76-1.67-6-1.47-4.93-3.67,1-2,5.44,1.14,4.93-2.28-.92-6.26-5.83-6.47-7.85-1.77-1.71,4,3,12.28-4.3,13.17-5.1.61-2.16,15.32-4.25,9.11C60.29,47,59,32.52,64.14,31.71c3.61-.57,1.89-4.21,2.66-6.27,1.44-3.83,3.77-2.45,6.65-5.57,3.26-3.53,2-7.61-1.77-9.33C67.08,8.43,62,28.19,60.18,28.19S61,3.2,52.05,8.36s4.84,6.4,5.64,20.88S50.86,9.15,45.1,20.45a8.41,8.41,0,0,0-.28,6.73c1.66,4.24,9,5.74,10.11,6.33,4.72,2.57,3.37,12.85,3.56,17.12.18,4.08-1.69,13.45-3.87,17s0-24.79-8.92-20.82c-4.84,2.15,4.39,6.91,1,11.25-3.86,5,5.82,8.65,5.44,14.09-.19,2.62-5,8.24-11.3,10.17,4.34-2.71,9.51-14.48,2.6-15.17-3.82-.39-4.45,2.75-3.14,8.07,1.72,7-2.32,7.53-4.87,7.23-1.61-.33-5.45-2.38-6.23-14.22-.52-7.9,4.83-9.88.65-15.46-2.66-3.54,1.47-8.13,5.66-9.78,3.14-1.23-1.61-5.73,6.75-5.22,5.44.33,1.22-5.64,1.22-5.64S35.08,19.08,28.3,45.59c0,0-3.76-15.69,6.84-25.43S41.23-.59,36.58.42C29.25,2,38.4,11.55,31.41,14.55c-5.32,2.28.15,13.6-4.18,14.06-2.05.21-.38-19.13-4.85-16.25-3,1.92-3.2-5.18-6.28-3.06-8.89,6.13,7.45,14.46,9.73,22.47,1,3.36-4.3,4.43-1.89,9.88,2.78,6.3,3.23,17.16,1.53,14.9-3-4-2.08-14.47-7.73-18.4-6.09-4.23-2.19-17.1-6.75-18.29S2.86,31.36,9.21,39.1,24,54.22,25.62,61.36s-11.4-2.14-14-10.27c-.65-2-2-9.06-4.55-7-3.82,3.06-1.57-4.55-5.44-1.88C-1.64,44.46.24,49.06,5,53.61a45,45,0,0,0,10.54,7.3c11.17,5.68,15.9,24.36,7.37,20S24.69,64.19,10,65.33c-7,.54,1.42,15,18.59,20.42,18.7,5.85,32.88-1,32.88-1s14.37-7.54,16.75-13.09-12.21-6-8.44-1.22c2.28,2.91-5.46,1.76-5.19,5.44s-.47,6.78-10.13,5.83c-6.05-.6,8.63-17.93,17.47-18.24,7.35-.25,1-8.29,6.71-6.2,5.2,1.9,13.57-6.71,6.34-6.46C80.72,50.92,85.65,43.64,82.59,44.85Z"/><circle class="cls-1" cx="40.02" cy="50.51" r="1.27"/><circle class="cls-1" cx="80.48" cy="39.37" r="1.27"/><circle class="cls-1" cx="16.55" cy="51.79" r="1.27"/><circle class="cls-1" cx="23.49" cy="6.97" r="1.27"/><circle class="cls-1" cx="80.13" cy="63.82" r="2.05"/><circle class="cls-1" cx="50.03" cy="2.05" r="2.05"/><circle class="cls-1" cx="34" cy="69.04" r="1.27"/><path class="cls-2" d="M111.83,42.35l-3.37,3q-1.77-2.48-3.61-2.47a2.18,2.18,0,0,0-1.46.48,1.4,1.4,0,0,0-.57,1.08,1.86,1.86,0,0,0,.4,1.14,31.41,31.41,0,0,0,3.34,3.07c1.73,1.45,2.79,2.36,3.15,2.74a9.24,9.24,0,0,1,2,2.67,6.59,6.59,0,0,1,.58,2.78,6.41,6.41,0,0,1-2,4.86,7.41,7.41,0,0,1-5.3,1.92,7.94,7.94,0,0,1-4.45-1.25,10,10,0,0,1-3.24-3.93l3.82-2.31c1.15,2.11,2.48,3.17,4,3.17a3,3,0,0,0,2-.68,2,2,0,0,0,.8-1.58,2.67,2.67,0,0,0-.61-1.62,16.86,16.86,0,0,0-2.65-2.49,26.87,26.87,0,0,1-5-4.91,6.22,6.22,0,0,1-1.14-3.45,5.6,5.6,0,0,1,1.9-4.26,6.54,6.54,0,0,1,4.67-1.78,7.43,7.43,0,0,1,3.41.83A12.54,12.54,0,0,1,111.83,42.35Z"/><path class="cls-2" d="M116.6,39.1h13v4.45h-8.52v4.32h8.52v4.37h-8.52v6.28h8.52V63h-13Z"/><path class="cls-2" d="M141.16,39.1h4.62L155,63h-4.72l-1.87-4.92h-9.75L136.68,63H132Zm2.34,6.33-3.21,8.2h6.39Z"/><path class="cls-2" d="M154.37,39.1h4.47l3.46,15.25,4.26-15.25h3.78l4.33,15.25,3.42-15.25h4.47L177.18,63h-4.36l-4.4-15.44L164.1,63h-4.32Z"/><path class="cls-2" d="M186.12,39.1h13v4.45h-8.52v4.32h8.52v4.37h-8.52v6.28h8.52V63h-13Z"/><path class="cls-2" d="M203.41,39.1h13v4.45h-8.52v4.32h8.52v4.37h-8.52v6.28h8.52V63h-13Z"/><path class="cls-2" d="M220.71,39.1h5.38q5.21,0,7.74,1.29a10,10,0,0,1,4.17,4.2,14.68,14.68,0,0,1,.72,11.86,10.51,10.51,0,0,1-2.53,3.84,9,9,0,0,1-3.49,2.11,25,25,0,0,1-6.53.58h-5.46Zm4.51,4.38V58.55h2.11a10.65,10.65,0,0,0,4.52-.71,5.39,5.39,0,0,0,2.3-2.41,8.77,8.77,0,0,0,.89-4.16,8,8,0,0,0-2.12-5.9q-1.92-1.89-6.16-1.89Z"/><path class="cls-1" d="M177.62,81.16a4.52,4.52,0,0,1-2,1.3,8.25,8.25,0,0,1-2.84.47,5.65,5.65,0,0,1-2.88-.72A4.82,4.82,0,0,1,168,80.13a7.4,7.4,0,0,1-.68-3.2v-.86A7.82,7.82,0,0,1,168,72.8a4.78,4.78,0,0,1,1.84-2.12,6.07,6.07,0,0,1,6.33.34,4.6,4.6,0,0,1,1.5,3.12h-2.53a2.55,2.55,0,0,0-.77-1.59,2.49,2.49,0,0,0-1.64-.5,2.31,2.31,0,0,0-2,1,5.27,5.27,0,0,0-.7,3v.81a5,5,0,0,0,.76,3,2.57,2.57,0,0,0,2.21,1,2.89,2.89,0,0,0,2.09-.63V78h-2.37V76.12h5Z"/><path class="cls-1" d="M184.4,78.13h-2.07v4.62h-2.6V70.12h4.69a5.27,5.27,0,0,1,3.45,1,3.43,3.43,0,0,1,1.22,2.82,3.88,3.88,0,0,1-.56,2.15,3.77,3.77,0,0,1-1.7,1.38l2.73,5.16v.12h-2.79ZM182.33,76h2.1a2.17,2.17,0,0,0,1.52-.5,1.77,1.77,0,0,0,.54-1.37,1.91,1.91,0,0,0-.51-1.41,2.12,2.12,0,0,0-1.56-.51h-2.09Z"/><path class="cls-1" d="M201.44,76.72a7.57,7.57,0,0,1-.66,3.27,5,5,0,0,1-1.89,2.17,5.17,5.17,0,0,1-2.81.77,5.27,5.27,0,0,1-2.8-.76A5,5,0,0,1,191.37,80a7.52,7.52,0,0,1-.69-3.23v-.62a7.54,7.54,0,0,1,.68-3.28,4.9,4.9,0,0,1,1.9-2.18,5.16,5.16,0,0,1,2.8-.76,5.21,5.21,0,0,1,2.81.76,5,5,0,0,1,1.9,2.18,7.49,7.49,0,0,1,.67,3.27Zm-2.64-.57a5.29,5.29,0,0,0-.71-3,2.51,2.51,0,0,0-4.05,0,5.31,5.31,0,0,0-.72,3v.61a5.41,5.41,0,0,0,.71,3,2.31,2.31,0,0,0,2.05,1.07,2.28,2.28,0,0,0,2-1,5.26,5.26,0,0,0,.71-3Z"/><path class="cls-1" d="M212.89,70.12v8.32a4.24,4.24,0,0,1-1.3,3.28,5.8,5.8,0,0,1-7.05,0,4.18,4.18,0,0,1-1.33-3.21V70.12h2.6v8.34a2.39,2.39,0,0,0,.6,1.81,2.26,2.26,0,0,0,1.64.57c1.46,0,2.21-.77,2.23-2.31V70.12Z"/><path class="cls-1" d="M217.63,78.3v4.45H215V70.12H220a5.78,5.78,0,0,1,2.5.52,3.81,3.81,0,0,1,1.66,1.48,4.12,4.12,0,0,1,.59,2.18,3.64,3.64,0,0,1-1.27,2.93,5.27,5.27,0,0,1-3.52,1.07Zm0-2.11H220a2.33,2.33,0,0,0,1.58-.48,1.79,1.79,0,0,0,.54-1.39A2,2,0,0,0,220,72.23h-2.38Z"/><path class="cls-1" d="M108.47,7.4h5.29q5.11,0,7.61,1.27a9.89,9.89,0,0,1,4.1,4.13,13.36,13.36,0,0,1,1.61,6.67,13.37,13.37,0,0,1-.9,5,10.31,10.31,0,0,1-2.49,3.78,8.72,8.72,0,0,1-3.44,2.07,24.09,24.09,0,0,1-6.41.58h-5.37Zm4.43,4.31V26.52H115a10.36,10.36,0,0,0,4.44-.7,5.31,5.31,0,0,0,2.26-2.37,8.59,8.59,0,0,0,.88-4.09,7.81,7.81,0,0,0-2.09-5.8c-1.26-1.23-3.27-1.85-6-1.85Z"/><path class="cls-1" d="M131.18,7.4h4.48V22.58a7.82,7.82,0,0,0,.35,2.78,2.78,2.78,0,0,0,1.13,1.3,3.61,3.61,0,0,0,1.91.48,3.73,3.73,0,0,0,2-.54,2.8,2.8,0,0,0,1.18-1.38,10.16,10.16,0,0,0,.33-3.2V7.4h4.49v14a20.53,20.53,0,0,1-.4,4.91A7,7,0,0,1,145.15,29a7.07,7.07,0,0,1-2.59,1.89,8.81,8.81,0,0,1-3.42.62,8.26,8.26,0,0,1-4.44-1.17A7,7,0,0,1,132,27.36a15.58,15.58,0,0,1-.81-6Z"/><path class="cls-1" d="M150,7.4h13v4.41h-4.28V30.88h-4.53V11.81H150Z"/><path class="cls-1" d="M187.57,11.53l-3.13,3a9.66,9.66,0,0,0-7.17-3.37,7.87,7.87,0,0,0-8,8,8.42,8.42,0,0,0,1,4.17,7.43,7.43,0,0,0,2.89,2.86,8.41,8.41,0,0,0,4.15,1,8.6,8.6,0,0,0,3.55-.73,12.67,12.67,0,0,0,3.54-2.65l3,3.17a16.74,16.74,0,0,1-4.91,3.52,13.56,13.56,0,0,1-5.29,1,12.18,12.18,0,0,1-9-3.47,12,12,0,0,1-3.49-8.9,12.17,12.17,0,0,1,1.59-6.24A11.87,11.87,0,0,1,171,8.47a12.79,12.79,0,0,1,6.38-1.66,13.56,13.56,0,0,1,10.23,4.72Z"/><path class="cls-1" d="M191.46,7.4H196v8.86h7.83V7.4h4.52V30.88h-4.52V20.58H196v10.3h-4.54Z"/></g></g></svg>