<?xml version="1.0" encoding="utf-8"?>
<!-- Generator: Adobe Illustrator 25.0.0, SVG Export Plug-In . SVG Version: 6.00 Build 0)  -->
<svg version="1.1" id="Laag_1" xmlns="http://www.w3.org/2000/svg" xmlns:xlink="http://www.w3.org/1999/xlink" x="0px" y="0px"
	 viewBox="0 0 50 50" style="enable-background:new 0 0 50 50;" xml:space="preserve">
<style type="text/css">
	.st0{fill:#FFFFFF;}
</style>
<path class="st0" d="M3.8,49.1h41.8c0.3,0,0.6-0.2,0.6-0.6c0-0.1,0-0.2-0.1-0.3c0-0.1-1.2-1.6-3.3-2.9c-2-1.2-5.4-2.4-9.9-1.4
	c-1,0.2-2.1,0.4-3.2,0.4c1.4-0.8,3-2.2,4.6-4.6c1.4-2.1,3.2-3.5,5-4.9c0.7-0.5,1.3-1,1.9-1.5c0.3-0.3,0.4-0.8,0.1-1.1
	c-0.2-0.2-0.5-0.3-0.7-0.3c-1.2,0.2-3.5,0.8-5.7,2.2c3.3-4.5,7.4-5.8,9.7-6.2c0.5-0.1,0.9-0.6,0.8-1.1c-0.1-0.4-0.3-0.7-0.7-0.8
	c-4.5-1.3-7-0.6-8.3,0.3c-0.7,0.5-1.4,1.1-2.1,1.7c0-0.2-0.1-0.5-0.1-0.7c6.2-7.5,5.8-14.6,5.4-17.4c-0.1-0.4-0.4-0.7-0.8-0.6
	c-0.3,0-0.6,0.3-0.6,0.6c-1.1,5.7-3.9,9.6-5.3,11.1c-0.5-4.1,0.5-7.4,1.3-9.2c0.2-0.4,0-0.9-0.4-1c-0.3-0.1-0.6-0.1-0.9,0.2
	c-4,3.9-3.7,7.5-3.3,11.7c0.1,1,0.2,2.1,0.2,3.3l-0.9,1c-0.2-3.9-0.8-7.6-1.9-10.9c-1.6-4.7-0.9-8.7-0.5-11l0-0.1
	c0.1-0.5-0.2-0.9-0.7-1c-0.3-0.1-0.7,0.1-0.9,0.4c-2.2,3.6-2.6,7.3-2.5,9.8c0,0.3,0,0.6,0.1,0.9c-1.5-2.5-3.4-4.7-5.6-6.6
	c-0.4-0.3-0.9-0.3-1.2,0.1c-0.2,0.3-0.3,0.7-0.1,1c1.5,2.6,5.1,9.4,6.8,14.8c0.3,0.9,0.5,1.7,0.6,2.6c-0.6-0.9-1.4-1.6-2.3-2.2
	c-0.9-3.5-3.2-5.7-4.8-6.9c-0.4-0.3-1.1-0.2-1.4,0.2c-0.2,0.3-0.3,0.7-0.1,1.1c0.3,0.5,0.5,1,0.7,1.5c-1-1.4-2.3-3.7-3.7-7.7
	c-0.2-0.5-0.6-0.7-1.1-0.5c-0.3,0.1-0.6,0.5-0.6,0.8c0,8.4,3.7,11.5,6.9,14.3c0.1,0.1,0.2,0.2,0.3,0.3c0,0.5,0.1,1,0.1,1.5
	c-0.5-0.7-1.2-1.3-1.9-1.8c-0.4-0.3-1-0.2-1.3,0.2c-0.2,0.3-0.2,0.6-0.1,0.9c0.3,0.9,0.5,1.8,0.5,2.6c-0.4-0.4-0.8-0.8-1.2-1.2
	c-1.1-1.4-1.9-3-2.4-4.1c-0.2-0.4-0.7-0.6-1.1-0.4c-0.3,0.1-0.5,0.5-0.5,0.8c0.3,2.7,1.3,7.5,4.6,9c0.1,0,0.1,0.1,0.2,0.1
	c0.2,1.7,0.8,3.4,1.6,4.9c0.8,1.4,2.1,3.1,4.2,4.1c-1.1,0-2.1-0.1-3.2-0.4c-4.5-1-7.9,0.2-9.9,1.4c-2.2,1.3-3.3,2.8-3.3,2.9
	c-0.2,0.2-0.1,0.6,0.1,0.8C3.6,49.1,3.7,49.1,3.8,49.1L3.8,49.1z M39.4,33.3c-0.3,0.2-0.5,0.4-0.8,0.6c-1.8,1.4-3.7,2.9-5.2,5.1
	c-1.6,2.5-3.3,3.7-4.5,4.4c1.2-1.4,2.5-3.6,4.1-6.5C34.8,34.9,37.6,33.9,39.4,33.3L39.4,33.3z M37,27.2c1.9-1.3,4.9-0.8,6.8-0.3
	c-3,0.6-8,2.5-11.5,9c-3.4,6.3-5.1,7.9-5.8,8.3c-0.1-0.4-0.2-0.9-0.3-1.3c0.5-0.8,0.9-1.9,1.3-3.2c1.6-0.8,3.1-3.5,4.7-6.8
	c0.2-0.5,0.5-0.9,0.7-1.3c0,0,0-0.1,0.1-0.1C33.4,30.9,34.4,29,37,27.2L37,27.2z M38.7,12.4c0,3.2-0.7,8.2-4.8,13.5
	c-0.2-0.8-0.4-1.7-0.6-2.6c-0.1-0.3-0.1-0.5-0.2-0.8C34,21.5,37.1,18.1,38.7,12.4z M28.9,31.5c0-0.9,0.1-1.9,0-2.8l0.8-1
	c-0.1,2-0.5,3.5-0.9,4.4C28.9,31.9,28.9,31.7,28.9,31.5z M28.7,34.5c0.6-0.6,2.4-2.8,2.2-8.3c0-1.3-0.1-2.4-0.2-3.5
	c-0.3-3.6-0.6-6.6,1.9-9.7c-0.8,2.5-1.5,6.3-0.3,10.6c0.6,2.1,0.9,4,1.1,5.6c-0.5,0.6-0.9,1.2-1.2,1.9c0,0,0,0.1-0.1,0.1
	c-0.2,0.4-0.4,0.9-0.7,1.4c-0.9,1.7-2.1,4.2-3.3,5.5C28.3,36.8,28.5,35.6,28.7,34.5z M25.2,6.2c-0.4,2.5-0.7,6,0.7,10.3
	c1.5,4.4,2.1,9.7,1.9,15c-0.2,3.6-0.8,7-1.7,9.3c0-1.4,0.1-2.8,0.3-4.2c1.1-6.6,0.3-12.8-2.2-18.3c-0.1-0.2-0.6-1.8-0.7-4.2
	C23.5,12,23.7,9.1,25.2,6.2z M17.3,10.3c2.3,2.2,4.2,4.9,5.6,7.8c2.7,5.5,3.5,11.6,2.4,18.3c-0.4,2.7-0.4,5.1,0,7.3
	c-0.8-0.7-1.5-1.5-2.1-2.4C23.1,41.1,23,41,23,40.9c0.6-1.7,1-3.4,1.2-5.1c0.8-5.3,0.1-9.4-0.7-11.8C22,19.2,19,13.5,17.3,10.3
	L17.3,10.3z M21,29.5c0.1-1,0.2-2.1,0.1-3.2c1.1,1,1.9,2.3,2.3,3.6c0.2,4.2-0.6,7.8-1.1,9.6c-0.3-0.6-0.5-1.2-0.7-1.9
	c0.4-0.5,0.7-1.1,0.9-1.7c0.4-1.6-0.1-3.6-1.5-5.7C20.9,30,21,29.8,21,29.5z M21.1,36.2c-0.3-1.3-0.4-2.6-0.3-3.9
	C21.6,34.2,21.5,35.5,21.1,36.2z M10.9,14.6c1.1,3,3,6.9,5.2,8.4c0.3,1,0.5,2,0.7,3C14,23.7,11.3,21,10.9,14.6z M15.6,18.9
	c2.1,1.6,5,5,4.3,10.4c-0.9,6.2,0.8,10.3,2.4,12.5c0.6,0.9,1.3,1.8,2.2,2.5c-0.8-0.1-1.5-0.4-2.1-0.9c-1.3-0.9-2.3-2.3-2.9-4.3
	c0-0.1,0-0.2-0.1-0.2c-0.2-0.8-0.4-1.5-0.5-2.3c-0.5-3.2-0.6-5.4-0.7-7.3C18,25.9,17.9,23.5,15.6,18.9L15.6,18.9z M17.2,32.3
	c0,0.3,0.1,0.7,0.1,1c-0.7-0.4-1.3-0.8-1.9-1.2c0-0.6,0-2-0.5-3.4C16.3,29.7,17,30.9,17.2,32.3L17.2,32.3z M10.5,27.9
	c0.5,0.9,1.1,1.8,1.7,2.7c1.7,2.2,4.4,3.6,5.2,4.1c0.1,0.6,0.2,1.2,0.3,1.9c-0.8-0.8-1.9-1.6-3.5-2.3C11.9,33.2,10.9,30.2,10.5,27.9
	L10.5,27.9z M16.6,39.7c-0.6-1.2-1.1-2.4-1.4-3.7c1.2,0.7,1.9,1.5,2.4,2c0.3,0.4,0.6,0.8,0.8,1.3c0.6,1.8,1.4,3.3,2.5,4.3
	C19,42.9,17.6,41.6,16.6,39.7L16.6,39.7z M7.3,46.4c2.7-1.6,5.8-2,9.1-1.3c2.2,0.5,4.1,0.5,5.8,0.1c0.9,0.2,1.8,0.3,2.7,0.3
	c0.2,0,0.4,0,0.5,0c0.3,0,0.5,0,0.8-0.1c0.4,0,0.9-0.1,1.3-0.2c1.6,0.3,3.4,0.2,5.5-0.2c3.3-0.7,6.4-0.3,9.1,1.3
	c0.8,0.5,1.6,1,2.2,1.7H5.1C5.8,47.4,6.5,46.8,7.3,46.4L7.3,46.4z"/>
</svg>
