<?xml version="1.0" encoding="utf-8"?>
<!-- Generator: Adobe Illustrator 25.0.0, SVG Export Plug-In . SVG Version: 6.00 Build 0)  -->
<svg version="1.1" id="Laag_1" xmlns="http://www.w3.org/2000/svg" xmlns:xlink="http://www.w3.org/1999/xlink" x="0px" y="0px"
	 viewBox="0 0 50 50" style="enable-background:new 0 0 50 50;" xml:space="preserve">
<style type="text/css">
	.st0{fill:#FFFFFF;}
</style>
<g>
	<g>
		<path class="st0" d="M43.6,47.8c-0.6-1.5-1.7-2.8-3.2-3.5c0.2-0.9,0.6-1.8,1-2.7c0.1-0.3,0.3-0.6,0.4-0.9c0.1-0.4-0.1-0.8-0.4-0.9
			c-0.4-0.1-0.8,0.1-0.9,0.4c-0.1,0.3-0.2,0.5-0.3,0.8c-0.2,0.4-0.3,0.7-0.5,1.1c-0.2-1.4-0.5-2.7-1.1-4c0.7-2.3,1-4.6,1.1-6.3
			c0.6,1.5,1.2,3.4,1.2,5.4c0,0.4,0.3,0.7,0.7,0.7c0.4,0,0.7-0.3,0.7-0.7c-0.1-4.5-2.7-8.7-2.8-8.8c-0.2-0.3-0.5-0.4-0.8-0.3
			s-0.5,0.4-0.5,0.7c0,0,0.4,3.5-0.6,7.5c-2-3.7-3.3-6.6-3.6-9.3c-0.3-2.5,0.1-5,1.5-9.1c0.1-0.4,0-0.8-0.4-0.9
			c-0.3-0.2-0.8-0.1-1,0.2c-0.8,1-2.7,3.6-3.6,7.2c-1.2,4.5-0.5,8.8,2,12.9c1.4,2.3,2.5,4.6,3,6.8c-1.7,0.6-3.2,2-3.8,3.7H29
			c-0.5-1.3-1.5-2.4-2.6-3.1c0.2-1.5,0.7-3.1,1.3-4.5c2.7-5.6-1.7-12.9-1.9-13.2c-0.2-0.3-0.5-0.4-0.8-0.3c-0.3,0.1-0.5,0.4-0.5,0.7
			c0,0.1,0.5,4.9-1.3,9.9c-0.3-1.5-0.5-3.1-0.4-4.8c0-0.4-0.3-0.7-0.7-0.7c-0.4,0-0.7,0.3-0.7,0.7c-0.1,2.7,0.3,5.1,1,7.3
			c-0.3,1.3-0.3,2.6,0,4.1c-0.7,0.1-1.4,0.3-2.1,0.6c-0.2-0.2-0.4-0.4-0.6-0.5c-0.2-0.1-0.4-0.3-0.6-0.4c1.2-2.9,1.8-6.6,0.5-10.9
			c-0.3-0.9-0.5-1.8-0.8-2.6c0.5-2.1,1.2-4.3,2.3-6.5c2-4.1,3.1-8.3,3.2-12.6c0-1.3,0-2.5-0.1-3.6c0.4,1.2,0.8,2.6,1,4.1
			c0.7,4.4,0.1,8.8-1.8,12.9c-0.7,1.5-1.2,3.1-1.5,4.8c-0.1,0.4,0.2,0.7,0.5,0.8c0.4,0.1,0.7-0.2,0.8-0.5c0.3-1.5,0.8-3,1.4-4.5
			c4.6-10.1,0.8-19-1-22.4C23.4,2,22.9,1.8,22.5,2C22.1,2.2,21.8,2.6,22,3c0.5,1.6,1.1,4.3,1,7.7c-0.1,4.1-1.1,8.1-3,12
			c-0.7,1.5-1.3,2.9-1.7,4.3c-0.5-2.3-0.8-4.4-0.6-6.3c0.2-2.9,1.2-5.5,3.7-9.6c0.2-0.3,0.1-0.8-0.2-1c-0.3-0.2-0.7-0.3-1,0
			c-1,0.9-3.7,3.3-5.5,6.9c-2.3,4.6-2.6,9.5-0.7,14.5c0.4,1.1,0.8,2.3,1.1,3.6c-1.9-3.6-3.2-6.5-3.6-9.1c-0.3-2.5,0.1-5,1.5-9.1
			c0.1-0.4,0-0.8-0.4-0.9c-0.3-0.2-0.8-0.1-1,0.2c-0.8,1-2.7,3.6-3.6,7.2c-1.2,4.5-0.5,8.8,2,12.9c1.3,2,2.2,4,2.8,6
			c-2.9,0.7-5.3,2.7-6.3,5.6c-0.1,0.3-0.1,0.6,0.1,0.9c0.2,0.3,0.5,0.4,0.8,0.4h5.2c0.4,0,0.7-0.3,0.7-0.7c0-0.4-0.3-0.7-0.7-0.7
			H7.8c1.2-2.6,3.8-4.4,6.7-4.4c1.6,0,3.1,0.5,4.4,1.5c0.1,0.1,0.1,0.1,0.2,0.2c-0.9,0.7-1.6,1.6-2,2.7h-1.5c-0.4,0-0.7,0.3-0.7,0.7
			s0.3,0.7,0.7,0.7h27c0.3,0,0.6-0.2,0.8-0.4C43.7,48.5,43.7,48.1,43.6,47.8L43.6,47.8z M24.2,38.7c1.3-3,1.7-6.1,1.8-8.3
			c1,2.5,2,6.2,0.5,9.1c-0.7,1.4-1.2,2.9-1.4,4.5c-0.4-0.1-0.8-0.2-1.2-0.3C23.4,41.9,23.5,40.2,24.2,38.7L24.2,38.7z M15.8,17.8
			c0.7-1.3,1.5-2.5,2.2-3.5c-1.1,2.4-1.7,4.4-1.8,6.5c-0.2,2.5,0.1,5.4,2.2,12.1c1.2,3.8,0.7,7.2-0.4,9.8c-0.3-0.1-0.7-0.3-1.1-0.4
			c0.2-2.9-0.1-6.7-1.8-11.2C13.4,26.5,13.6,22,15.8,17.8L15.8,17.8z M14,42c-0.6-2.1-1.6-4.3-3-6.5C8.6,31.8,8,27.9,9.1,23.7
			c0.3-1.1,0.7-2.1,1.1-3c-0.5,2.1-0.5,3.8-0.3,5.5c0.4,3,1.9,6.2,4.1,10.3c0.8,1.5,1.3,3,1.5,4.6c0,0.3,0,0.6,0,0.9
			c-0.3,0-0.7-0.1-1-0.1C14.3,42,14.2,42,14,42z M25.4,47.8h-6.7c0.8-1.6,2.6-2.7,4.4-2.7c1.9,0,3.6,1.1,4.4,2.7L25.4,47.8z
			 M33.7,36.5c-2.3-3.7-2.9-7.7-1.8-11.8c0.3-1.1,0.7-2.1,1.1-3c-0.5,2.1-0.5,3.8-0.3,5.5c0.4,3,1.9,6.2,4.1,10.3
			c1.1,2,1.6,4,1.7,6.2c-0.3,0-0.5,0-0.8,0c-0.3,0-0.5,0-0.8,0C36.3,41.4,35.2,39,33.7,36.5L33.7,36.5z M33.2,47.8
			c0.8-1.6,2.6-2.7,4.4-2.7c1.9,0,3.6,1.1,4.4,2.7L33.2,47.8z"/>
	</g>
</g>
</svg>
